<svg width="85" height="36" viewBox="0 0 85 36" fill="none" xmlns="http://www.w3.org/2000/svg">
<g clip-path="url(#clip0_9217_26788)">
<path d="M4.9617 7.93531H6.71817V9.69178H4.9617V7.93531ZM3.20523 7.93531H4.9617V9.69178H3.20523V7.93531ZM3.20523 9.69178H4.9617V11.4482H3.20523V9.69178ZM4.9617 9.69178H6.71817V11.4482H4.9617V9.69178ZM6.71817 9.69178H8.47464V11.4482H6.71817V9.69178ZM6.71817 7.93531H8.47464V9.69178H6.71817V7.93531ZM8.47464 7.93531H10.2311V9.69178H8.47464V7.93531ZM10.2311 7.93531H11.9876V9.69178H10.2311V7.93531ZM10.2311 9.69178H11.9876V11.4482H10.2311V9.69178ZM8.47464 9.69178H10.2311V11.4482H8.47464V9.69178ZM8.47464 11.4482H10.2311V13.2047H8.47464V11.4482ZM10.2311 11.4482H11.9876V13.2047H10.2311V11.4482ZM11.9876 9.69178H13.744V11.4482H11.9876V9.69178ZM11.9876 11.4482H13.744V13.2047H11.9876V11.4482ZM11.9876 13.2047H13.744V14.9612H11.9876V13.2047ZM11.9876 14.9612H13.744V16.7177H11.9876V14.9612ZM11.9876 16.7177H13.744V18.4741H11.9876V16.7177ZM11.9876 18.4741H13.744V20.2306H11.9876V18.4741ZM11.9876 20.2306H13.744V21.9871H11.9876V20.2306ZM11.9876 21.9871H13.744V23.7435H11.9876V21.9871ZM10.2311 21.9871H11.9876V23.7435H10.2311V21.9871ZM10.2311 20.2306H11.9876V21.9871H10.2311V20.2306ZM10.2311 18.4741H11.9876V20.2306H10.2311V18.4741ZM10.2311 16.7177H11.9876V18.4741H10.2311V16.7177ZM10.2311 14.9612H11.9876V16.7177H10.2311V14.9612ZM10.2311 13.2047H11.9876V14.9612H10.2311V13.2047ZM8.47464 20.2306H10.2311V21.9871H8.47464V20.2306ZM8.47464 21.9871H10.2311V23.7435H8.47464V21.9871ZM10.2311 23.7435H11.9876V25.5H10.2311V23.7435ZM8.47464 23.7435H10.2311V25.5H8.47464V23.7435ZM6.71817 23.7435H8.47464V25.5H6.71817V23.7435ZM6.71817 21.9871H8.47464V23.7435H6.71817V21.9871ZM4.9617 23.7435H6.71817V25.5H4.9617V23.7435ZM3.20523 23.7435H4.9617V25.5H3.20523V23.7435ZM3.20523 21.9871H4.9617V23.7435H3.20523V21.9871ZM4.9617 21.9871H6.71817V23.7435H4.9617V21.9871ZM3.20523 20.2306H4.9617V21.9871H3.20523V20.2306ZM1.44876 21.9871H3.20523V23.7435H1.44876V21.9871ZM1.44876 20.2306H3.20523V21.9871H1.44876V20.2306ZM1.44876 18.4741H3.20523V20.2306H1.44876V18.4741ZM1.44876 16.7177H3.20523V18.4741H1.44876V16.7177ZM1.44876 14.9612H3.20523V16.7177H1.44876V14.9612ZM1.44876 13.2047H3.20523V14.9612H1.44876V13.2047ZM1.44876 11.4482H3.20523V13.2047H1.44876V11.4482ZM3.20523 11.4482H4.9617V13.2047H3.20523V11.4482ZM1.44876 9.69178H3.20523V11.4482H1.44876V9.69178ZM3.20523 13.2047H4.9617V14.9612H3.20523V13.2047ZM3.20523 14.9612H4.9617V16.7177H3.20523V14.9612ZM3.20523 16.7177H4.9617V18.4741H3.20523V16.7177ZM3.20523 18.4741H4.9617V20.2306H3.20523V18.4741ZM1.44876 23.7435H3.20523V25.5H1.44876V23.7435ZM1.44876 7.93531H3.20523V9.69178H1.44876V7.93531ZM15.5051 21.9871H17.2616V23.7435H15.5051V21.9871ZM17.2616 21.9871H19.018V23.7435H17.2616V21.9871ZM17.2616 23.7435H19.018V25.5H17.2616V23.7435ZM15.5051 23.7435H17.2616V25.5H15.5051V23.7435ZM15.5051 11.4482H17.2616V13.2047H15.5051V11.4482ZM17.2616 11.4482H19.018V13.2047H17.2616V11.4482ZM15.5051 13.2047H17.2616V14.9612H15.5051V13.2047ZM17.2616 13.2047H19.018V14.9612H17.2616V13.2047ZM27.8141 7.93531H29.5706V9.69178H27.8141V7.93531ZM27.8141 9.69178H29.5706V11.4482H27.8141V9.69178ZM26.0576 9.69178H27.8141V11.4482H26.0576V9.69178ZM26.0576 7.93531H27.8141V9.69178H26.0576V7.93531ZM27.8141 11.4482H29.5706V13.2047H27.8141V11.4482ZM26.0576 11.4482H27.8141V13.2047H26.0576V11.4482ZM26.0576 13.2047H27.8141V14.9612H26.0576V13.2047ZM26.0576 14.9612H27.8141V16.7177H26.0576V14.9612ZM26.0576 16.7177H27.8141V18.4741H26.0576V16.7177ZM24.3012 16.7177H26.0576V18.4741H24.3012V16.7177ZM24.3012 14.9612H26.0576V16.7177H24.3012V14.9612ZM24.3012 13.2047H26.0576V14.9612H24.3012V13.2047ZM24.3012 18.4741H26.0576V20.2306H24.3012V18.4741ZM24.3012 20.2306H26.0576V21.9871H24.3012V20.2306ZM24.3012 21.9871H26.0576V23.7435H24.3012V21.9871ZM22.5447 21.9871H24.3012V23.7435H22.5447V21.9871ZM22.5447 20.2306H24.3012V21.9871H22.5447V20.2306ZM22.5447 18.4741H24.3012V20.2306H22.5447V18.4741ZM22.5447 23.7435H24.3012V25.5H22.5447V23.7435ZM22.5447 25.5H24.3012V27.2565H22.5447V25.5ZM22.5447 27.2565H24.3012V29.0129H22.5447V27.2565ZM20.7882 27.2565H22.5447V29.0129H20.7882V27.2565ZM20.7882 25.5H22.5447V27.2565H20.7882V25.5ZM20.7882 23.7435H22.5447V25.5H20.7882V23.7435Z" fill="black"/>
<path d="M47.744 13.2047V14.9612H45.9876V13.2047H47.744ZM47.744 11.4482V13.2047H45.9876V11.4482H47.744ZM45.9876 11.4482V13.2047H44.2311V11.4482H45.9876ZM45.9876 13.2047V14.9612H44.2311V13.2047H45.9876ZM45.9876 14.9612V16.7177H44.2311V14.9612H45.9876ZM45.9876 16.7177V18.4741H44.2311V16.7177H45.9876ZM45.9876 18.4741V20.2306H44.2311V18.4741H45.9876ZM47.744 18.4741V20.2306H45.9876V18.4741H47.744ZM47.744 16.7177V18.4741H45.9876V16.7177H47.744ZM47.744 14.9612V16.7177H45.9876V14.9612H47.744ZM47.744 20.2306V21.9871H45.9876V20.2306H47.744ZM45.9876 20.2306V21.9871H44.2311V20.2306H45.9876ZM45.9876 21.9871V23.7435H44.2311V21.9871H45.9876ZM45.9876 23.7435V25.5H44.2311V23.7435H45.9876ZM47.744 23.7435V25.5H45.9876V23.7435H47.744ZM47.744 21.9871V23.7435H45.9876V21.9871H47.744ZM38.9617 23.7435V25.5H37.2052V23.7435H38.9617ZM37.2052 21.9871V23.7435H35.4488V21.9871H37.2052ZM37.2052 20.2306V21.9871H35.4488V20.2306H37.2052ZM37.2052 18.4741V20.2306H35.4488V18.4741H37.2052ZM37.2052 16.7177V18.4741H35.4488V16.7177H37.2052ZM37.2052 14.9612V16.7177H35.4488V14.9612H37.2052ZM37.2052 13.2047V14.9612H35.4488V13.2047H37.2052ZM38.9617 16.7177V18.4741H37.2052V16.7177H38.9617ZM38.9617 18.4741V20.2306H37.2052V18.4741H38.9617ZM38.9617 20.2306V21.9871H37.2052V20.2306H38.9617ZM38.9617 21.9871V23.7435H37.2052V21.9871H38.9617ZM38.9617 14.9612V16.7177H37.2052V14.9612H38.9617ZM40.7182 13.2047V14.9612H38.9617V13.2047H40.7182ZM40.7182 11.4482V13.2047H38.9617V11.4482H40.7182ZM38.9617 11.4482V13.2047H37.2052V11.4482H38.9617ZM38.9617 13.2047V14.9612H37.2052V13.2047H38.9617ZM42.4746 11.4482V13.2047H40.7182V11.4482H42.4746ZM47.744 7.93531V9.69178H45.9876V7.93531H47.744ZM45.9876 7.93531V9.69178H44.2311V7.93531H45.9876ZM45.9876 9.69178V11.4482H44.2311V9.69178H45.9876ZM47.744 9.69178V11.4482H45.9876V9.69178H47.744ZM42.4746 23.7435V25.5H40.7182V23.7435H42.4746ZM40.7182 23.7435V25.5H38.9617V23.7435H40.7182ZM40.7182 21.9871V23.7435H38.9617V21.9871H40.7182ZM42.4746 21.9871V23.7435H40.7182V21.9871H42.4746ZM44.2311 21.9871V23.7435H42.4746V21.9871H44.2311ZM44.2311 11.4482V13.2047H42.4746V11.4482H44.2311ZM44.2311 13.2047V14.9612H42.4746V13.2047H44.2311ZM42.4746 13.2047V14.9612H40.7182V13.2047H42.4746ZM53.018 11.4482H54.7745V13.2047H53.018V11.4482ZM51.2616 11.4482H53.018V13.2047H51.2616V11.4482ZM51.2616 13.2047H53.018V14.9612H51.2616V13.2047ZM53.018 13.2047H54.7745V14.9612H53.018V13.2047ZM54.7745 11.4482H56.531V13.2047H54.7745V11.4482ZM56.531 11.4482H58.2874V13.2047H56.531V11.4482ZM58.2874 11.4482H60.0439V13.2047H58.2874V11.4482ZM58.2874 13.2047H60.0439V14.9612H58.2874V13.2047ZM56.531 13.2047H58.2874V14.9612H56.531V13.2047ZM60.0439 13.2047H61.8004V14.9612H60.0439V13.2047ZM60.0439 14.9612H61.8004V16.7177H60.0439V14.9612ZM60.0439 21.9871H61.8004V23.7435H60.0439V21.9871ZM58.2874 21.9871H60.0439V23.7435H58.2874V21.9871ZM58.2874 14.9612H60.0439V16.7177H58.2874V14.9612ZM56.531 21.9871H58.2874V23.7435H56.531V21.9871ZM58.2874 23.7435H60.0439V25.5H58.2874V23.7435ZM56.531 23.7435H58.2874V25.5H56.531V23.7435ZM54.7745 23.7435H56.531V25.5H54.7745V23.7435ZM53.018 23.7435H54.7745V25.5H53.018V23.7435ZM51.2616 23.7435H53.018V25.5H51.2616V23.7435ZM51.2616 21.9871H53.018V23.7435H51.2616V21.9871ZM53.018 21.9871H54.7745V23.7435H53.018V21.9871ZM51.2616 20.2306H53.018V21.9871H51.2616V20.2306ZM49.5051 21.9871H51.2616V23.7435H49.5051V21.9871ZM49.5051 20.2306H51.2616V21.9871H49.5051V20.2306ZM49.5051 18.4741H51.2616V20.2306H49.5051V18.4741ZM49.5051 16.7177H51.2616V18.4741H49.5051V16.7177ZM49.5051 14.9612H51.2616V16.7177H49.5051V14.9612ZM49.5051 13.2047H51.2616V14.9612H49.5051V13.2047ZM51.2616 14.9612H53.018V16.7177H51.2616V14.9612ZM51.2616 16.7177H53.018V18.4741H51.2616V16.7177ZM51.2616 18.4741H53.018V20.2306H51.2616V18.4741ZM54.7745 21.9871H56.531V23.7435H54.7745V21.9871ZM54.7745 13.2047H56.531V14.9612H54.7745V13.2047ZM58.2874 16.7177H60.0439V18.4741H58.2874V16.7177ZM60.0439 16.7177H61.8004V18.4741H60.0439V16.7177ZM53.018 18.4741H54.7745V20.2306H53.018V18.4741ZM54.7745 18.4741H56.531V20.2306H54.7745V18.4741ZM56.531 18.4741H58.2874V20.2306H56.531V18.4741ZM58.2874 18.4741H60.0439V20.2306H58.2874V18.4741ZM60.0439 18.4741H61.8004V20.2306H60.0439V18.4741ZM56.531 16.7177H58.2874V18.4741H56.531V16.7177ZM54.7745 16.7177H56.531V18.4741H54.7745V16.7177ZM53.018 16.7177H54.7745V18.4741H53.018V16.7177ZM63.5614 11.4482H65.3179V13.2047H63.5614V11.4482ZM65.3179 11.4482H67.0744V13.2047H65.3179V11.4482ZM65.3179 13.2047H67.0744V14.9612H65.3179V13.2047ZM65.3179 14.9612H67.0744V16.7177H65.3179V14.9612ZM65.3179 16.7177H67.0744V18.4741H65.3179V16.7177ZM65.3179 18.4741H67.0744V20.2306H65.3179V18.4741ZM63.5614 18.4741H65.3179V20.2306H63.5614V18.4741ZM63.5614 16.7177H65.3179V18.4741H63.5614V16.7177ZM63.5614 14.9612H65.3179V16.7177H63.5614V14.9612ZM63.5614 13.2047H65.3179V14.9612H63.5614V13.2047ZM65.3179 20.2306H67.0744V21.9871H65.3179V20.2306ZM67.0744 20.2306H68.8308V21.9871H67.0744V20.2306ZM67.0744 21.9871H68.8308V23.7435H67.0744V21.9871ZM68.8308 21.9871H70.5873V23.7435H68.8308V21.9871ZM68.8308 23.7435H70.5873V25.5H68.8308V23.7435ZM70.5873 21.9871H72.3438V23.7435H70.5873V21.9871ZM70.5873 20.2306H72.3438V21.9871H70.5873V20.2306ZM72.3438 20.2306H74.1002V21.9871H72.3438V20.2306ZM72.3438 18.4741H74.1002V20.2306H72.3438V18.4741ZM72.3438 16.7177H74.1002V18.4741H72.3438V16.7177ZM72.3438 14.9612H74.1002V16.7177H72.3438V14.9612ZM72.3438 13.2047H74.1002V14.9612H72.3438V13.2047ZM72.3438 11.4482H74.1002V13.2047H72.3438V11.4482ZM74.1002 16.7177H75.8567V18.4741H74.1002V16.7177ZM74.1002 18.4741H75.8567V20.2306H74.1002V18.4741ZM74.1002 14.9612H75.8567V16.7177H74.1002V14.9612ZM74.1002 13.2047H75.8567V14.9612H74.1002V13.2047ZM74.1002 11.4482H75.8567V13.2047H74.1002V11.4482ZM68.8308 20.2306H70.5873V21.9871H68.8308V20.2306ZM67.0744 18.4741H68.8308V20.2306H67.0744V18.4741ZM70.5873 18.4741H72.3438V20.2306H70.5873V18.4741Z" fill="black"/>
</g>
<defs>
<clipPath id="clip0_9217_26788">
<rect width="84" height="36" fill="white" transform="translate(0.948761)"/>
</clipPath>
</defs>
</svg>
