<svg width="63" height="52" viewBox="0 0 63 52" fill="none" xmlns="http://www.w3.org/2000/svg">
<path d="M62.3925 23.355L61.2675 19.0471L55.9928 20.4246C55.1378 17.1878 54.2778 13.9543 53.4123 10.7222C51.3117 2.89433 43.7432 -1.51361 35.9114 0.480828C29.6877 2.06317 23.4655 3.65879 17.2453 5.26953C9.74074 7.20002 5.20274 14.0991 6.59976 21.7921C7.24387 25.3596 7.15441 28.5733 4.84939 31.5836C3.63076 33.1666 2.50833 34.4782 0.0549602 35.4102L1.11976 39.4875C4.60411 38.6049 7.11553 36.5337 9.4485 33.5337L14.0561 51.177L23.2522 48.7754C22.7905 45.2365 23.2694 41.7882 26.1575 39.4037C27.7362 38.1058 29.5956 37.198 31.5877 36.754C36.1061 35.836 39.9673 38.4499 42.4051 43.6778L51.4648 41.3118L49.0901 32.2184L47.5022 32.6331C46.6205 32.8204 45.727 33.0967 44.6721 33.3722L46.3362 39.7444C41.6294 33.0447 35.6067 30.2114 27.7134 32.8181C22.0723 34.6823 19.0955 39.3087 18.1678 47.2804C17.8966 46.5693 17.7202 46.199 17.6115 45.8051C15.5526 37.9957 13.4987 30.183 11.4484 22.3693C9.85507 16.268 12.8432 11.1713 18.9349 9.53746C21.3583 8.88504 23.7913 8.26922 26.6051 7.53439C23.7071 15.1781 25.0209 21.5557 31.4277 26.3433C34.8061 28.8644 38.7198 29.5215 42.9966 28.4594L42.9866 28.4209L52.7739 25.865C53.2126 27.5449 53.6463 29.2282 54.0733 30.9151L54.0478 30.9218L56.4207 40.0078L60.8387 38.8541L58.4663 29.7698L58.4536 29.7731C58.0144 28.0913 57.5715 26.4105 57.1269 24.7301L62.3925 23.355ZM41.8602 24.1154C39.2827 24.4307 36.7801 24.2144 34.4618 22.777C30.8813 20.5609 29.0756 16.3174 29.9588 12.1927C30.8337 8.21483 34.2573 5.02382 38.1265 4.55096C42.4509 4.03546 46.6083 6.20649 48.3989 9.98283C48.8316 10.9254 49.1753 11.9069 49.4281 12.9122C50.1804 15.7926 50.9248 18.6732 51.6611 21.5519L41.8602 24.1154Z" fill="#F9055B"/>
<path d="M39.7084 11.4121C38.1915 11.8083 37.2845 13.3646 37.6813 14.8914C38.0799 16.4176 39.6307 17.3341 41.1481 16.9398C42.665 16.5436 43.572 14.9872 43.1752 13.4605L43.1743 13.4569C42.7762 11.9325 41.224 11.0183 39.7084 11.4121Z" fill="#F9055B"/>
</svg>
