<?xml version="1.0" encoding="UTF-8"?>
<svg id="a" data-name="Layer 1" xmlns="http://www.w3.org/2000/svg" viewBox="0 0 319.102 272.8562">
  <g>
    <path d="M292.2234,266.5372c-.7399,1.4536-1.4797,2.9158-2.2195,4.378-.6266,1.2185-1.8713,1.9409-3.1682,1.9409-.4439,0-.8964-.087-1.3316-.2611-34.5977-13.9871-69.1954-27.9828-103.7931-41.9785-3.2118-1.2969-6.6324-1.9671-10.0965-1.9671h-24.127c-3.4641,0-6.8934.6702-10.0965,1.9671-34.6063,13.9957-69.1954,27.9915-103.7931,41.9785-.4352.1741-.8877.2611-1.3316.2611-1.2969,0-2.5416-.7224-3.1682-1.9409-.7398-1.4622-1.4796-2.9245-2.2195-4.378-.8007-1.5667-.3394-3.4641,1.0793-4.4912,18.7045-13.4387,61.3185-44.05,77.6816-55.8002l3.8907-2.7939c2.7243-1.9584,5.9969-3.0115,9.3566-3.0115h81.3286c3.3596,0,6.6322,1.0532,9.3566,3.0115l3.8906,2.7939c16.5198,11.8546,58.8726,42.2831,77.6816,55.8002,1.4186,1.027,1.8799,2.9245,1.0793,4.4912Z" fill="#231f20"/>
    <path d="M292.2234,266.5372c-.7399,1.4536-1.4797,2.9158-2.2195,4.378-.6266,1.2185-1.8713,1.9409-3.1682,1.9409-.4439,0-.8964-.087-1.3316-.2611-34.5977-13.9871-69.1954-27.9828-103.7931-41.9785-3.2118-1.2969-6.6324-1.9671-10.0965-1.9671h-24.127c-3.4641,0-6.8934.6702-10.0965,1.9671-34.6063,13.9957-69.1954,27.9915-103.7931,41.9785-.4352.1741-.8877.2611-1.3316.2611-1.2969,0-2.5416-.7224-3.1682-1.9409-.7398-1.4622-1.4796-2.9245-2.2195-4.378-.8007-1.5667-.3394-3.4641,1.0793-4.4912,18.7045-13.4387,61.3185-44.05,77.6816-55.8002l3.8907-2.7939c2.7243-1.9584,5.9969-3.0115,9.3566-3.0115h81.3286c3.3596,0,6.6322,1.0532,9.3566,3.0115l3.8906,2.7939c16.5198,11.8546,58.8726,42.2831,77.6816,55.8002,1.4186,1.027,1.8799,2.9245,1.0793,4.4912Z" fill="#231f20"/>
    <path d="M292.2234,266.5372c-.7399,1.4536-1.4797,2.9158-2.2195,4.378-.6266,1.2185-1.8713,1.9409-3.1682,1.9409-.4439,0-.8964-.087-1.3316-.2611-34.5977-13.9871-69.1954-27.9828-103.7931-41.9785-3.2118-1.2969-6.6324-1.9671-10.0965-1.9671h-24.127c-3.4641,0-6.8934.6702-10.0965,1.9671-34.6063,13.9957-69.1954,27.9915-103.7931,41.9785-.4352.1741-.8877.2611-1.3316.2611-1.2969,0-2.5416-.7224-3.1682-1.9409-.7398-1.4622-1.4796-2.9245-2.2195-4.378-.8007-1.5667-.3394-3.4641,1.0793-4.4912,18.7045-13.4387,61.3185-44.05,77.6816-55.8002l3.8907-2.7939c2.7243-1.9584,5.9969-3.0115,9.3566-3.0115h81.3286c3.3596,0,6.6322,1.0532,9.3566,3.0115l3.8906,2.7939c16.5198,11.8546,58.8726,42.2831,77.6816,55.8002,1.4186,1.027,1.8799,2.9245,1.0793,4.4912Z" fill="#231f20"/>
  </g>
  <g>
    <g>
      <path d="M148.8367,113.2367l-41.7349,69.8047c-1.7233,2.881-4.3085,5.1526-7.3895,6.4844l-4.3867,1.9061c-18.6611,8.0945-66.5061,28.8358-87.7607,38.0444-.4526.1915-.9314.2872-1.4013.2872-1.1924,0-2.3327-.6006-3.0029-1.6624-.8704-1.3839-1.7495-2.7678-2.6199-4.1517-.9747-1.558-.6005-3.6121.8704-4.7175,29.7584-22.5255,59.5256-45.0423,89.2839-67.5504,2.7678-2.0889,5.1004-4.6914,6.8759-7.6594l12.3769-20.7064c1.7755-2.9767,2.9593-6.2581,3.4902-9.6786,5.7445-36.8781,11.4804-73.7562,17.2335-110.6343.2699-1.7321,1.7669-3.0028,3.499-3.0028.0871,0,.1654.0087.2437.0087l4.909.3395c1.7408.1218,3.1421,1.4883,3.29,3.2291,1.941,22.952,6.3451,75.2446,8.0337,95.3156l.4091,4.7697c.2785,3.3423-.4961,6.6932-2.2194,9.5742Z" fill="#231f20"/>
      <path d="M6.1635,229.7635c-1.1924,0-2.3327-.6006-3.0029-1.6624-.8704-1.3839-1.7495-2.7678-2.6199-4.1517-.9747-1.558-.6005-3.6121.8704-4.7175,29.7584-22.5255,59.5256-45.0423,89.2839-67.5504,2.7678-2.0889,5.1004-4.6914,6.8759-7.6594l12.3769-20.7064c1.7755-2.9767,2.9593-6.2581,3.4902-9.6786,5.7445-36.8781,11.4804-73.7562,17.2335-110.6343.2699-1.7321,1.7669-3.0028,3.499-3.0028.0871,0,.1654.0087.2437.0087l4.909.3395c1.7408.1218,3.1421,1.4883,3.29,3.2291,1.941,22.952,6.3451,75.2446,8.0337,95.3156l.4091,4.7697c.2785,3.3423-.4961,6.6932-2.2194,9.5742l-41.7349,69.8047c-1.7233,2.881-4.3085,5.1526-7.3895,6.4844l-4.3867,1.9061c-18.6611,8.0945-66.5061,28.8358-87.7607,38.0444-.4526.1915-.9314.2872-1.4013.2872Z" fill="#231f20"/>
      <path d="M148.8367,113.2367l-41.7349,69.8047c-1.7233,2.881-4.3085,5.1526-7.3895,6.4844l-4.3867,1.9061c-18.6611,8.0945-66.5061,28.8358-87.7607,38.0444-.4526.1915-.9314.2872-1.4013.2872-1.1924,0-2.3327-.6006-3.0029-1.6624-.8704-1.3839-1.7495-2.7678-2.6199-4.1517-.9747-1.558-.6005-3.6121.8704-4.7175,29.7584-22.5255,59.5256-45.0423,89.2839-67.5504,2.7678-2.0889,5.1004-4.6914,6.8759-7.6594l12.3769-20.7064c1.7755-2.9767,2.9593-6.2581,3.4902-9.6786,5.7445-36.8781,11.4804-73.7562,17.2335-110.6343.2699-1.7321,1.7669-3.0028,3.499-3.0028.0871,0,.1654.0087.2437.0087l4.909.3395c1.7408.1218,3.1421,1.4883,3.29,3.2291,1.941,22.952,6.3451,75.2446,8.0337,95.3156l.4091,4.7697c.2785,3.3423-.4961,6.6932-2.2194,9.5742Z" fill="#231f20"/>
    </g>
    <g>
      <path d="M318.5612,223.9494c-.8704,1.3839-1.7495,2.7678-2.6199,4.1517-.6702,1.0618-1.8105,1.6624-3.0029,1.6624-.4699,0-.9487-.0957-1.4013-.2872-21.2547-9.2087-69.0997-29.9499-87.7607-38.0444l-4.3867-1.9061c-3.0811-1.3317-5.6662-3.6034-7.3895-6.4844l-41.7349-69.8047c-1.7233-2.881-2.4979-6.2319-2.2194-9.5742l.4091-4.7697c1.6886-20.071,6.0927-72.3636,8.0337-95.3156.1479-1.7408,1.5492-3.1073,3.29-3.2291l4.909-.3395c.0784,0,.1566-.0087.2437-.0087,1.7321,0,3.2291,1.2708,3.499,3.0028,5.7531,36.8781,11.489,73.7562,17.2335,110.6343.5309,3.4206,1.7147,6.702,3.4902,9.6786l12.3769,20.7064c1.7755,2.968,4.1082,5.5705,6.8759,7.6594,29.7583,22.5081,59.5255,45.0249,89.2839,67.5504,1.4709,1.1054,1.8451,3.1595.8704,4.7175Z" fill="#231f20"/>
      <path d="M318.5612,223.9494c-.8704,1.3839-1.7495,2.7678-2.6199,4.1517-.6702,1.0618-1.8105,1.6624-3.0029,1.6624-.4699,0-.9487-.0957-1.4013-.2872-21.2547-9.2087-69.0997-29.9499-87.7607-38.0444l-4.3867-1.9061c-3.0811-1.3317-5.6662-3.6034-7.3895-6.4844l-41.7349-69.8047c-1.7233-2.881-2.4979-6.2319-2.2194-9.5742l.4091-4.7697c1.6886-20.071,6.0927-72.3636,8.0337-95.3156.1479-1.7408,1.5492-3.1073,3.29-3.2291l4.909-.3395c.0784,0,.1566-.0087.2437-.0087,1.7321,0,3.2291,1.2708,3.499,3.0028,5.7531,36.8781,11.489,73.7562,17.2335,110.6343.5309,3.4206,1.7147,6.702,3.4902,9.6786l12.3769,20.7064c1.7755,2.968,4.1082,5.5705,6.8759,7.6594,29.7583,22.5081,59.5255,45.0249,89.2839,67.5504,1.4709,1.1054,1.8451,3.1595.8704,4.7175Z" fill="#231f20"/>
      <path d="M318.5612,223.9494c-.8704,1.3839-1.7495,2.7678-2.6199,4.1517-.6702,1.0618-1.8105,1.6624-3.0029,1.6624-.4699,0-.9487-.0957-1.4013-.2872-21.2547-9.2087-69.0997-29.9499-87.7607-38.0444l-4.3867-1.9061c-3.0811-1.3317-5.6662-3.6034-7.3895-6.4844l-41.7349-69.8047c-1.7233-2.881-2.4979-6.2319-2.2194-9.5742l.4091-4.7697c1.6886-20.071,6.0927-72.3636,8.0337-95.3156.1479-1.7408,1.5492-3.1073,3.29-3.2291l4.909-.3395c.0784,0,.1566-.0087.2437-.0087,1.7321,0,3.2291,1.2708,3.499,3.0028,5.7531,36.8781,11.489,73.7562,17.2335,110.6343.5309,3.4206,1.7147,6.702,3.4902,9.6786l12.3769,20.7064c1.7755,2.968,4.1082,5.5705,6.8759,7.6594,29.7583,22.5081,59.5255,45.0249,89.2839,67.5504,1.4709,1.1054,1.8451,3.1595.8704,4.7175Z" fill="#231f20"/>
      <path d="M177.831,183.9031h-36.5601c-6.7894,0-10.9877-7.4013-7.5039-13.2287l18.28-30.5768c3.3929-5.6753,11.6148-5.6753,15.0078,0l18.28,30.5768c3.4838,5.8274-.7145,13.2287-7.5039,13.2287Z" fill="#231f20"/>
    </g>
  </g>
</svg>